# xmcd CD database file
#
# Track frame offsets:
#	150
#	21845
#	36510
#
# Disc length: 772 seconds
#
# Revision: 0
# Processed by: cddbd v1.5PL3 Copyright (c) Steve Scherf et al.
# Submitted via: CDex 1.51
#
DISCID=20030203
DTITLE=Heart▽Chu - KIRA☆KIRA
DYEAR=2000
DGENRE=JPop
TTITLE0=KIRA☆KIRA
TTITLE1=Twinkle
TTITLE2=KIRA☆KIRA (Minus One Mix)
EXTD=YEAR: 2000
EXTT0=
EXTT1=
EXTT2=
PLAYORDER=
